<svg width="14" height="12" viewBox="0 0 14 12" fill="none" xmlns="http://www.w3.org/2000/svg">
<path d="M2.5 0C1.25736 0 0.25 1.00736 0.25 2.25C0.25 3.49264 1.25736 4.5 2.5 4.5C3.74264 4.5 4.75 3.49264 4.75 2.25C4.75 1.00736 3.74264 0 2.5 0Z" fill="#1E1F24"/>
<path d="M7.75 1.5C7.33579 1.5 7 1.83579 7 2.25C7 2.66421 7.33579 3 7.75 3H13C13.4142 3 13.75 2.66421 13.75 2.25C13.75 1.83579 13.4142 1.5 13 1.5H7.75Z" fill="#1E1F24"/>
<path d="M2.5 7.5C1.25736 7.5 0.25 8.50736 0.25 9.75C0.25 10.9926 1.25736 12 2.5 12C3.74264 12 4.75 10.9926 4.75 9.75C4.75 8.50736 3.74264 7.5 2.5 7.5Z" fill="#1E1F24"/>
<path d="M7.75 9C7.33579 9 7 9.33579 7 9.75C7 10.1642 7.33579 10.5 7.75 10.5H13C13.4142 10.5 13.75 10.1642 13.75 9.75C13.75 9.33579 13.4142 9 13 9H7.75Z" fill="#1E1F24"/>
</svg>
