<svg width="15" height="16" viewBox="0 0 15 16" fill="none" xmlns="http://www.w3.org/2000/svg">
<path fill-rule="evenodd" clip-rule="evenodd" d="M7.5 2C4.18629 2 1.5 4.68629 1.5 8C1.5 8.90432 1.69957 9.75997 2.05635 10.5271C2.19748 10.8305 2.24914 11.1891 2.16206 11.546L1.57808 13.9393L4.07466 13.3755C4.41599 13.2984 4.75689 13.3474 5.04798 13.4779C5.79562 13.8132 6.62499 14 7.5 14C10.8137 14 13.5 11.3137 13.5 8C13.5 4.68629 10.8137 2 7.5 2ZM0 8C0 3.85786 3.35786 0.5 7.5 0.5C11.6421 0.5 15 3.85786 15 8C15 12.1421 11.6421 15.5 7.5 15.5C6.40934 15.5 5.37115 15.2667 4.43426 14.8466C4.41605 14.8385 4.40576 14.8388 4.40413 14.8389L1.90848 15.4024C0.822218 15.6477 -0.143154 14.6656 0.120831 13.5837L0.704578 11.1914C0.704705 11.1897 0.705175 11.1788 0.696264 11.1597C0.249214 10.1985 0 9.12731 0 8Z" fill="#1E1F24"/>
</svg>
