<svg width="18" height="18" viewBox="0 0 18 18" fill="none" xmlns="http://www.w3.org/2000/svg">
<path fill-rule="evenodd" clip-rule="evenodd" d="M2.25 4.5C2.25 3.25736 3.25736 2.25 4.5 2.25H13.5C14.7426 2.25 15.75 3.25736 15.75 4.5V13.5C15.75 14.7426 14.7426 15.75 13.5 15.75H4.5C3.25736 15.75 2.25 14.7426 2.25 13.5V4.5ZM4.5 9.21527C4.5 10.3702 5.18959 11.0625 6.35953 11.0625C7.43517 11.0625 8.12475 10.4574 8.12475 9.51781V9.39272C8.12475 8.95927 7.92436 8.76728 7.46169 8.76728H6.85756C6.54519 8.76728 6.3831 8.904 6.3831 9.16872C6.3831 9.43635 6.54813 9.58181 6.85756 9.58181H6.9666V9.62835C6.9666 9.89889 6.74263 10.0851 6.41552 10.0851C5.96758 10.0851 5.73772 9.78544 5.73772 9.20945V8.81964C5.73772 8.23783 5.96758 7.95275 6.45088 7.95275C6.69441 7.95275 6.85411 8.06689 7.00995 8.17826C7.07663 8.22592 7.14261 8.27307 7.21415 8.31056C7.30255 8.36001 7.40275 8.39201 7.52063 8.39201C7.80943 8.39201 8.01277 8.1942 8.01277 7.91493C8.01277 7.65021 7.81827 7.40585 7.51474 7.2284C7.20825 7.04804 6.79568 6.9375 6.35363 6.9375C5.21611 6.9375 4.5 7.65021 4.5 8.75273V9.21527ZM9.26817 11.0043C9.66306 11.0043 9.87819 10.7716 9.87819 10.3498V7.62985C9.87819 7.21095 9.65717 6.97532 9.25933 6.97532C8.86149 6.97532 8.64047 7.20804 8.64047 7.62985V10.3498C8.64047 10.7687 8.86739 11.0043 9.26817 11.0043ZM11.7937 10.3498C11.7937 10.7745 11.5815 11.0043 11.1925 11.0043C10.7888 11.0043 10.556 10.7658 10.556 10.3498V7.62403C10.556 7.24004 10.7917 7.00441 11.1719 7.00441H13.0432C13.3055 7.00441 13.5 7.20804 13.5 7.4844C13.5 7.76075 13.3055 7.95566 13.0432 7.95566H11.7937V8.68583H12.8959C13.1699 8.68583 13.3527 8.872 13.3527 9.14545C13.3527 9.41599 13.167 9.60508 12.8959 9.60508H11.7937V10.3498Z" fill="#1E1F24"/>
</svg>
