<svg width="15" height="14" viewBox="0 0 15 14" fill="none" xmlns="http://www.w3.org/2000/svg">
<path fill-rule="evenodd" clip-rule="evenodd" d="M2.46903 2.63796C1.91538 3.22851 1.5 4.16056 1.5 5.5C1.5 7.30392 2.81417 8.98577 4.39172 10.289C5.16029 10.9239 5.9475 11.4319 6.57224 11.779C6.88476 11.9526 7.14933 12.0819 7.3439 12.1653C7.40656 12.1921 7.45855 12.2127 7.5 12.228C7.54145 12.2127 7.59344 12.1921 7.6561 12.1653C7.85067 12.0819 8.11524 11.9526 8.42776 11.779C9.0525 11.4319 9.83971 10.9239 10.6083 10.289C12.1858 8.98577 13.5 7.30392 13.5 5.5C13.5 4.16056 13.0846 3.22851 12.531 2.63796C11.9737 2.04357 11.2363 1.75 10.5 1.75C9.71587 1.75 9.08886 1.98482 8.65601 2.22092C8.43971 2.3389 8.2748 2.45572 8.16731 2.53985C8.11373 2.58178 8.07496 2.61516 8.05175 2.6359C8.04016 2.64626 8.03252 2.65341 8.0289 2.65683L8.02952 2.65614C8.02853 2.65713 8.02793 2.65772 8.02694 2.6587C8.02733 2.65833 8.02798 2.6577 8.0289 2.65683L8.02766 2.65799L8.02694 2.6587C7.73492 2.94708 7.2651 2.9471 6.97308 2.65872C6.97226 2.65791 6.97144 2.65709 6.97061 2.65627C6.97046 2.65612 6.97077 2.65642 6.97061 2.65627C6.967 2.65285 6.95984 2.64626 6.94825 2.6359C6.92504 2.61516 6.88627 2.58178 6.83269 2.53985C6.7252 2.45572 6.56029 2.3389 6.34399 2.22092C5.91114 1.98482 5.28413 1.75 4.5 1.75C3.76373 1.75 3.02626 2.04357 2.46903 2.63796ZM6.97061 2.65627L6.9712 2.65686L6.97234 2.65799L6.97308 2.65872C6.97226 2.65791 6.97144 2.65709 6.97061 2.65627ZM7.5 1.17114C7.62487 1.08622 7.77111 0.994967 7.93774 0.904078C8.53614 0.577676 9.40913 0.25 10.5 0.25C11.6387 0.25 12.7763 0.706429 13.6253 1.61204C14.4779 2.52149 15 3.83944 15 5.5C15 8.00858 13.2204 10.0767 11.5636 11.4454C10.715 12.1464 9.84984 12.7048 9.15623 13.0902C8.80956 13.2828 8.49845 13.4362 8.24698 13.544C8.12198 13.5975 8.00329 13.6435 7.89716 13.6774C7.81623 13.7034 7.66193 13.75 7.5 13.75C7.33807 13.75 7.18377 13.7034 7.10284 13.6774C6.99671 13.6435 6.87802 13.5975 6.75302 13.544C6.50155 13.4362 6.19044 13.2828 5.84378 13.0902C5.15016 12.7048 4.28502 12.1464 3.4364 11.4454C1.77958 10.0767 0 8.00858 0 5.5C0 3.83944 0.52212 2.52149 1.37472 1.61204C2.22374 0.706429 3.36127 0.25 4.5 0.25C5.59087 0.25 6.46386 0.577676 7.06226 0.904078C7.22889 0.994967 7.37513 1.08622 7.5 1.17114Z" fill="#1E1F24"/>
</svg>
