<svg width="18" height="18" viewBox="0 0 18 18" fill="none" xmlns="http://www.w3.org/2000/svg">
<path d="M4.6875 5.625C5.20527 5.625 5.625 5.20527 5.625 4.6875C5.625 4.16973 5.20527 3.75 4.6875 3.75C4.16973 3.75 3.75 4.16973 3.75 4.6875C3.75 5.20527 4.16973 5.625 4.6875 5.625Z" fill="#1E1F24"/>
<path fill-rule="evenodd" clip-rule="evenodd" d="M3.75 1.5C2.50736 1.5 1.5 2.50736 1.5 3.75V9.75C1.5 10.9926 2.50736 12 3.75 12H6V14.25C6 15.4926 7.00736 16.5 8.25 16.5H14.25C15.4926 16.5 16.5 15.4926 16.5 14.25V8.25C16.5 7.00736 15.4926 6 14.25 6H12V3.75C12 2.50736 10.9926 1.5 9.75 1.5H3.75ZM10.5 6V3.75C10.5 3.33579 10.1642 3 9.75 3H3.75C3.33579 3 3 3.33579 3 3.75V7.59838L3.252 7.43038C4.00778 6.92653 4.99238 6.92653 5.74816 7.43038L6.08037 7.65186C6.34233 6.69955 7.21447 6 8.25 6H10.5ZM6 9.40105L4.9161 8.67845C4.66418 8.5105 4.33598 8.5105 4.08405 8.67845L3 9.40116V9.75C3 10.1642 3.33579 10.5 3.75 10.5H6V9.40105ZM10.6019 12.9889C10.227 13.2138 9.75 12.9437 9.75 12.5065V9.99348C9.75 9.55625 10.227 9.28619 10.6019 9.51114L12.6961 10.7677C13.0602 10.9861 13.0602 11.5139 12.6961 11.7323L10.6019 12.9889Z" fill="#1E1F24"/>
</svg>
