<svg width="18" height="14" viewBox="0 0 18 14" fill="none" xmlns="http://www.w3.org/2000/svg">
<path fill-rule="evenodd" clip-rule="evenodd" d="M9.44276 0.315833C9.71218 0.194844 10.0275 0.24324 10.2483 0.439456L16.9983 6.43946C17.1584 6.58178 17.25 6.78578 17.25 7.00001C17.25 7.21424 17.1584 7.41824 16.9983 7.56057L10.2483 13.5606C10.0275 13.7568 9.71218 13.8052 9.44276 13.6842C9.17333 13.5632 9 13.2954 9 13V10.3807C6.30791 10.4233 4.86766 10.7016 3.99166 11.1396C3.10691 11.582 2.73014 12.2168 2.17082 13.3354C2.01526 13.6465 1.66621 13.8099 1.32769 13.7299C0.989157 13.65 0.75 13.3478 0.75 13C0.75 9.7868 1.21084 7.36967 2.68545 5.78582C4.05658 4.31314 6.15039 3.72025 9 3.63577V1.00001C9 0.704669 9.17333 0.436823 9.44276 0.315833ZM10.5 2.67015V4.37501C10.5 4.78923 10.1642 5.12501 9.75 5.12501C6.61009 5.12501 4.82581 5.68821 3.7833 6.80795C3.05372 7.59157 2.60065 8.73774 2.39007 10.413C2.65389 10.1856 2.95913 9.9788 3.32084 9.79794C4.61678 9.14997 6.55593 8.87501 9.75 8.87501C10.1642 8.87501 10.5 9.2108 10.5 9.62501V11.3299L15.3711 7.00001L10.5 2.67015Z" fill="#1E1F24"/>
</svg>
